<?xml version="1.0" encoding="utf-8"?>
<!-- Fork + Knife overlay with gold handles -->
<svg xmlns="http://www.w3.org/2000/svg" viewBox="0 0 496 496" xml:space="preserve">
  <!-- Black rounded background -->
  <rect x="0" y="0" width="496" height="496" rx="24" ry="24" fill="#000000"/>
  
  <!-- Fork and knife content with slight padding -->
  <g transform="translate(24,24) scale(0.9)">
  <!-- Knife (overlay, shifted slightly right so it overlaps fork) -->
  <g transform="translate(40,0)">
    <!-- blade/accents (unchanged) -->
    <path style="fill:#A3CAD3;" d="M233.153,289.6c-7.2,7.2-18.4,7.2-25.6,0c-7.2-7.2-7.2-18.4,0-25.6l94.4-94.4c7.2-7.2,18.4-7.2,25.6,0c7.2,7.2,7.2,18.4,0,25.6L233.153,289.6z"/>
    <path style="fill:#8FBAC1;" d="M295.553,202.4c-7.2-7.2-18.4-7.2-25.6,0l-54.4,54.4l25.6,25.6l54.4-54.4c6.4-6.4,6.4-17.6,0-25.6z"/>
    <!-- KNIFE HANDLE (was gray) -->
    <path style="fill:#d4a437;" d="M293.153,256.8l189.6-172c19.2-19.2,19.2-50.4,0-70.4c-19.2-19.2-50.4-19.2-70.4,0l-172,189.6L293.153,256.8z"/>
    <path style="fill:#d4a437;" d="M275.553,239.2l181.6-172.8c-3.2,2.4-6.4,3.2-10.4,3.2c-10.4,0-18.4-8-18.4-18.4s8-18.4,18.4-18.4c10.4-0.8,18.4,8,18.4,17.6c0,4-0.8,7.2-3.2,10.4l31.2-31.2c-2.4-5.6-5.6-10.4-10.4-15.2c-19.2-19.2-50.4-19.2-70.4,0l-172,189.6L275.553,239.2z"/>
    <g>
      <path style="fill:#d4a437;" d="M405.953,52c4,4,4,10.4,0.8,14.4l-33.6,36c-4,4-10.4,4-14.4,0.8c-4-4-4-10.4-0.8-14.4l33.6-36c4-3.2,9.6-3.2,14.4,0.8z"/>
      <path style="fill:#d4a437;" d="M346.753,115.2c4,4,4,10.4,0.8,14.4l-33.6,36c-4,4-10.4,4-14.4,0.8c-4-4-4-10.4-0.8-14.4l33.6-36c4-3.2,10.4-3.2,14.4,0.8z"/>
    </g>
    <path style="fill:#d4a437;" d="M297.153,266.4c-4,4-10.4,4-14.4,0l-52-52c-4-4-4-10.4,0-14.4c4-4,10.4-4,14.4,0l52,52c4,4,4,10.4,0,14.4z"/>
    <!-- keep these (not handle) -->
    <path style="fill:#A3CAD3;" d="M245.153,240c-0.8-0.8-1.6-0.8-1.6-1.6c-3.2-2.4-7.2-2.4-9.6,0l-224,223.2c-1.6,1.6-1.6,2.4-5.6,6.4c-5.6,8-4.8,6.4,0,16.8c4,8,14.4,12.8,29.6,12.8c31.2,0,100-20,164-96C253.153,337.6,272.353,268,245.153,240z"/>
    <path style="fill:#8FBAC1;" d="M177.153,385.6c45.6-54.4,67.2-112.8,56-145.6L9.953,461.6c-1.6,1.6-1.6,2.4-5.6,6.4c-4.8,6.4-4.8,6.4-1.6,12c3.2,0.8,6.4,0.8,10.4,0.8c30.4,0,100-20,164-94.4z"/>
  </g>

  <!-- Fork (mirrored) -->
  <g transform="translate(496,0) scale(-1,1)">
    <!-- keep blade/metal bits -->
    <path style="fill:#A3CAD3;" d="M236,285.6c-7.2,7.2-18.4,7.2-24.8,0c-7.2-7.2-7.2-18.4,0-24.8L304,168c7.2-7.2,18.4-7.2,24.8,0c7.2,7.2,7.2,18.4,0,24.8L236,285.6z"/>
    <path style="fill:#8FBAC1;" d="M296.8,199.2c-7.2-7.2-18.4-7.2-24.8,0l-53.6,53.6l24.8,24.8l53.6-53.6C304,216.8,304,205.6,296.8,199.2z"/>
    <!-- FORK HANDLE (was red family) -->
    <path style="fill:#d4a437;" d="M295.2,252.8L481.6,83.2c19.2-19.2,19.2-50.4,0-68.8c-19.2-19.2-49.6-19.2-68.8,0L243.2,200.8L295.2,252.8z"/>
    <path style="fill:#d4a437;" d="M277.6,235.2L456.8,64.8c-3.2,1.6-6.4,3.2-10.4,3.2C436,68,428,60,428,49.6s8-18.4,18.4-18.4s18.4,8,18.4,18.4c0,4-0.8,7.2-3.2,10.4L492,29.6c-2.4-5.6-5.6-10.4-10.4-15.2c-19.2-19.2-49.6-19.2-68.8,0L243.2,200.8L277.6,235.2z"/>
    <g>
      <path style="fill:#d4a437;" d="M406.4,51.2c4,4,4,9.6,0.8,13.6L374.4,100c-4,4-9.6,4-13.6,0.8c-4-4-4-9.6-0.8-13.6L392.8,52c3.2-4,9.6-4.8,13.6-0.8z"/>
      <path style="fill:#d4a437;" d="M348,113.6c4,4,4,9.6,0.8,13.6L316,162.4c-4,4-9.6,4-13.6,0.8c-4-4-4-9.6-0.8-13.6l32.8-35.2c4-3.2,10.4-3.2,13.6,0.8z"/>
    </g>
    <path style="fill:#d4a437;" d="M299.2,262.4c-4,4-10.4,4-14.4,0l-51.2-51.2c-4-4-4-10.4,0-14.4c4-4,10.4-4,14.4,0l51.2,51.2c4,4,4,10.4,0,14.4z"/>
    <!-- keep non-handle parts -->
    <path style="fill:#A3CAD3;" d="M248,290.4L205.6,248L148,263.2L0,453.6l0.8,0.8L143.2,312c8-8,20.8-8,28.8,0l12,12c8,8,8,20.8,0,28.8L41.6,495.2l0.8,0.8l190.4-148L248,290.4z"/>
    <path style="fill:#8FBAC1;" d="M200.8,337.6l-42.4-42.4l-44.8,12L0,453.6l0.8,0.8L96,359.2l47.2-48c8-8,20.8-8,28.8,0l12,12c8,8,8,20.8,0,28.8L41.6,495.2l0.8,0.8l146.4-113.6L200.8,337.6z"/>
  </g>
  </g>
</svg>